<svg xmlns="http://www.w3.org/2000/svg" xmlns:xlink="http://www.w3.org/1999/xlink" width="500" zoomAndPan="magnify" viewBox="0 0 375 374.999991" height="500" preserveAspectRatio="xMidYMid meet" version="1.0"><defs><clipPath id="f747840e77"><path d="M 7.238281 8.292969 L 368.65625 8.292969 L 368.65625 368.289062 L 7.238281 368.289062 Z M 7.238281 8.292969 " clip-rule="nonzero"/></clipPath><clipPath id="6fae7337da"><path d="M 23.152344 111 L 181 111 L 181 283.84375 L 23.152344 283.84375 Z M 23.152344 111 " clip-rule="nonzero"/></clipPath><clipPath id="0a0d086fc3"><path d="M 63 61.84375 L 141 61.84375 L 141 112 L 63 112 Z M 63 61.84375 " clip-rule="nonzero"/></clipPath><clipPath id="3596e34952"><path d="M 195 111 L 353 111 L 353 283.84375 L 195 283.84375 Z M 195 111 " clip-rule="nonzero"/></clipPath><clipPath id="b0105851e0"><path d="M 235 61.84375 L 313 61.84375 L 313 112 L 235 112 Z M 235 61.84375 " clip-rule="nonzero"/></clipPath></defs><rect x="-37.5" width="450" fill="#ffffff" y="-37.499999" height="449.999989" fill-opacity="1"/><rect x="-37.5" width="450" fill="#ffffff" y="-37.499999" height="449.999989" fill-opacity="1"/><g clip-path="url(#f747840e77)"><path stroke-linecap="butt" transform="matrix(0.749512, 0, 0, 0.749512, 7.239418, 8.291663)" fill="none" stroke-linejoin="miter" d="M -0.00151669 0.00174185 L 482.202874 0.00174185 L 482.202874 480.309065 L -0.00151669 480.309065 Z M -0.00151669 0.00174185 " stroke="#3b7bf8" stroke-width="30" stroke-opacity="1" stroke-miterlimit="4"/></g><g clip-path="url(#6fae7337da)"><path fill="#3b7bf8" d="M 113.738281 171.316406 C 117.128906 170.382812 120.644531 172.355469 121.589844 175.75 C 129.183594 203.125 152.976562 222.894531 180.828125 225.8125 L 180.828125 131.238281 C 180.828125 120.496094 172.125 111.78125 161.382812 111.78125 L 42.570312 111.78125 C 31.828125 111.78125 23.109375 120.496094 23.109375 131.238281 L 23.109375 264.09375 C 23.109375 274.835938 31.828125 283.535156 42.570312 283.535156 L 161.382812 283.535156 C 172.125 283.535156 180.828125 274.835938 180.828125 264.09375 L 180.828125 238.621094 C 147.261719 235.648438 118.425781 212.015625 109.304688 179.152344 C 108.375 175.761719 110.347656 172.261719 113.738281 171.316406 Z M 151.425781 163.519531 C 156.207031 163.519531 160.085938 167.4375 160.085938 172.277344 C 160.085938 177.101562 156.207031 181.03125 151.425781 181.03125 C 146.640625 181.03125 142.75 177.101562 142.75 172.277344 C 142.75 167.4375 146.640625 163.519531 151.425781 163.519531 Z M 151.425781 163.519531 " fill-opacity="1" fill-rule="nonzero"/></g><g clip-path="url(#0a0d086fc3)"><path fill="#3b7bf8" d="M 140.761719 111.78125 L 128.035156 111.78125 L 128.035156 100.742188 C 128.035156 86.378906 116.347656 74.691406 101.984375 74.691406 C 87.617188 74.691406 75.929688 86.378906 75.929688 100.742188 L 75.929688 111.78125 L 63.203125 111.78125 L 63.203125 100.742188 C 63.203125 79.351562 80.605469 61.960938 101.984375 61.960938 C 123.359375 61.960938 140.777344 79.367188 140.777344 100.742188 L 140.777344 111.78125 Z M 140.761719 111.78125 " fill-opacity="1" fill-rule="nonzero"/></g><g clip-path="url(#3596e34952)"><path fill="#3b7bf8" d="M 333.433594 111.78125 L 214.621094 111.78125 C 203.878906 111.78125 195.175781 120.496094 195.175781 131.238281 L 195.175781 225.824219 C 223.027344 222.90625 246.820312 203.125 254.441406 175.75 C 255.375 172.355469 258.875 170.371094 262.265625 171.316406 C 265.65625 172.261719 267.644531 175.761719 266.710938 179.152344 C 257.578125 212.015625 228.742188 235.664062 195.175781 238.621094 L 195.175781 264.09375 C 195.175781 274.835938 203.878906 283.535156 214.621094 283.535156 L 333.433594 283.535156 C 344.175781 283.535156 352.894531 274.835938 352.894531 264.09375 L 352.894531 131.238281 C 352.894531 120.496094 344.175781 111.78125 333.433594 111.78125 Z M 224.59375 181.03125 C 219.796875 181.03125 215.917969 177.101562 215.917969 172.277344 C 215.917969 167.4375 219.796875 163.519531 224.59375 163.519531 C 229.375 163.519531 233.269531 167.4375 233.269531 172.277344 C 233.269531 177.101562 229.375 181.03125 224.59375 181.03125 Z M 224.59375 181.03125 " fill-opacity="1" fill-rule="nonzero"/></g><g clip-path="url(#b0105851e0)"><path fill="#3b7bf8" d="M 312.828125 111.78125 L 300.101562 111.78125 L 300.101562 100.742188 C 300.101562 86.378906 288.414062 74.691406 274.046875 74.691406 C 259.683594 74.691406 247.996094 86.378906 247.996094 100.742188 L 247.996094 111.78125 L 235.269531 111.78125 L 235.269531 100.742188 C 235.269531 79.351562 252.671875 61.960938 274.046875 61.960938 C 295.4375 61.960938 312.84375 79.367188 312.84375 100.742188 L 312.84375 111.78125 Z M 312.828125 111.78125 " fill-opacity="1" fill-rule="nonzero"/></g></svg>